<svg xmlns="http://www.w3.org/2000/svg" viewBox="0 0 64 64" role="img" aria-label="El Jardin de Luna">
  <defs>
    <linearGradient id="bg" x1="0%" y1="0%" x2="100%" y2="100%">
      <stop offset="0%" stop-color="#243a56" />
      <stop offset="100%" stop-color="#3c6ea2" />
    </linearGradient>
    <linearGradient id="gold" x1="0%" y1="0%" x2="100%" y2="100%">
      <stop offset="0%" stop-color="#f1dfb4" />
      <stop offset="100%" stop-color="#d2b26f" />
    </linearGradient>
  </defs>
  <circle cx="32" cy="32" r="29" fill="url(#bg)" />
  <circle cx="32" cy="32" r="28" fill="none" stroke="url(#gold)" stroke-width="1.6" opacity="0.75" />
  <path
    d="M37.5 15.5a17 17 0 1 0 0 33.1c-6.3-3.6-10.2-9.7-10.2-16.5s3.9-12.9 10.2-16.6Z"
    fill="none"
    stroke="url(#gold)"
    stroke-width="2.8"
    stroke-linejoin="round"
    stroke-linecap="round"
  />
  <path
    d="M35 22.4c-2.7 3.7-4.4 6.9-4.4 10.4 0 4.6 3 8.2 7.4 9.7 4.4-1.5 7.4-5.1 7.4-9.7 0-3.5-1.7-6.7-4.4-10.4l-3 4.4-3-4.4Z"
    fill="url(#gold)"
    opacity="0.98"
  />
  <circle cx="24.5" cy="22.5" r="1.2" fill="url(#gold)" />
  <circle cx="45.5" cy="21" r="1" fill="url(#gold)" />
  <circle cx="47.5" cy="28.5" r="0.9" fill="url(#gold)" />
</svg>
